{"asset":{"generator":"FBX2glTF v0.9.7","version":"2.0"},"scene":0,"buffers":[{"byteLength":215148,"uri":"data:application/octet-stream;base64,"}],"bufferViews":[{"buffer":0,"byteLength":28908,"byteOffset":0,"target":34963},{"buffer":0,"byteLength":38184,"byteOffset":28908,"target":34962},{"buffer":0,"byteLength":38184,"byteOffset":67092,"target":34962},{"buffer":0,"byteLength":25456,"byteOffset":105276,"target":34962},{"buffer":0,"byteLength":25456,"byteOffset":130732,"target":34962},{"buffer":0,"byteLength":50912,"byteOffset":156188,"target":34962},{"buffer":0,"byteLength":480,"byteOffset":207100,"target":34963},{"buffer":0,"byteLength":720,"byteOffset":207580,"target":34962},{"buffer":0,"byteLength":720,"byteOffset":208300,"target":34962},{"buffer":0,"byteLength":480,"byteOffset":209020,"target":34962},{"buffer":0,"byteLength":480,"byteOffset":209500,"target":34962},{"buffer":0,"byteLength":960,"byteOffset":209980,"target":34962},{"buffer":0,"byteLength":216,"byteOffset":210940,"target":34963},{"buffer":0,"byteLength":348,"byteOffset":211156,"target":34962},{"buffer":0,"byteLength":348,"byteOffset":211504,"target":34962},{"buffer":0,"byteLength":232,"byteOffset":211852,"target":34962},{"buffer":0,"byteLength":232,"byteOffset":212084,"target":34962},{"buffer":0,"byteLength":464,"byteOffset":212316,"target":34962},{"buffer":0,"byteLength":2368,"byteOffset":212780}],"scenes":[{"name":"Root Scene","nodes":[0]}],"accessors":[{"componentType":5123,"type":"SCALAR","count":14454,"bufferView":0,"byteOffset":0},{"componentType":5126,"type":"VEC3","count":3182,"bufferView":1,"byteOffset":0,"min":[-0.215559020638466,-0.171791985630989,0.000135189999127761],"max":[0.215559005737305,0.304908037185669,0.361134976148605]},{"componentType":5126,"type":"VEC3","count":3182,"bufferView":2,"byteOffset":0},{"componentType":5126,"type":"VEC2","count":3182,"bufferView":3,"byteOffset":0},{"componentType":5123,"type":"VEC4","count":3182,"bufferView":4,"byteOffset":0},{"componentType":5126,"type":"VEC4","count":3182,"bufferView":5,"byteOffset":0},{"componentType":5123,"type":"SCALAR","count":240,"bufferView":6,"byteOffset":0},{"componentType":5126,"type":"VEC3","count":60,"bufferView":7,"byteOffset":0,"min":[-0.0675539001822472,-0.16703799366951,0.193975985050201],"max":[0.0675539001822472,-0.113591022789478,0.260841965675354]},{"componentType":5126,"type":"VEC3","count":60,"bufferView":8,"byteOffset":0},{"componentType":5126,"type":"VEC2","count":60,"bufferView":9,"byteOffset":0},{"componentType":5123,"type":"VEC4","count":60,"bufferView":10,"byteOffset":0},{"componentType":5126,"type":"VEC4","count":60,"bufferView":11,"byteOffset":0},{"componentType":5123,"type":"SCALAR","count":108,"bufferView":12,"byteOffset":0},{"componentType":5126,"type":"VEC3","count":29,"bufferView":13,"byteOffset":0,"min":[-0.0273890998214483,-0.171551987528801,0.16118897497654],"max":[0.0273890998214483,-0.148436993360519,0.202825978398323]},{"componentType":5126,"type":"VEC3","count":29,"bufferView":14,"byteOffset":0},{"componentType":5126,"type":"VEC2","count":29,"bufferView":15,"byteOffset":0},{"componentType":5123,"type":"VEC4","count":29,"bufferView":16,"byteOffset":0},{"componentType":5126,"type":"VEC4","count":29,"bufferView":17,"byteOffset":0},{"componentType":5126,"type":"MAT4","count":37,"bufferView":18,"byteOffset":0}],"images":[{"name":"pm0133_00_Body1.png","uri":"data:application/octet-stream;base64,"},{"name":"pm0133_00_Eye1.png","uri":"data:application/octet-stream;base64,"},{"name":"pm0133_00_Mouth1.png","uri":"data:application/octet-stream;base64,"}],"samplers":[{}],"textures":[{"name":"Map #0","sampler":0,"source":0},{"name":"Map #1","sampler":0,"source":1},{"name":"Map #2","sampler":0,"source":2}],"materials":[{"name":"Material #12","alphaMode":"OPAQUE","extras":{"fromFBX":{"shadingModel":"Phong","isTruePBR":false}},"pbrMetallicRoughness":{"baseColorTexture":{"index":0,"texCoord":0},"baseColorFactor":[1,1,1,1],"metallicFactor":0.400000005960464,"roughnessFactor":0.70710676908493}},{"name":"Material #13","alphaMode":"OPAQUE","extras":{"fromFBX":{"shadingModel":"Phong","isTruePBR":false}},"pbrMetallicRoughness":{"baseColorTexture":{"index":1,"texCoord":0},"baseColorFactor":[1,1,1,1],"metallicFactor":0.400000005960464,"roughnessFactor":0.70710676908493}},{"name":"Material #14","alphaMode":"OPAQUE","extras":{"fromFBX":{"shadingModel":"Phong","isTruePBR":false}},"pbrMetallicRoughness":{"baseColorTexture":{"index":2,"texCoord":0},"baseColorFactor":[1,1,1,1],"metallicFactor":0.400000005960464,"roughnessFactor":0.70710676908493}}],"meshes":[{"name":"Eevee","primitives":[{"material":0,"mode":4,"attributes":{"JOINTS_0":4,"NORMAL":2,"POSITION":1,"TEXCOORD_0":3,"WEIGHTS_0":5},"indices":0},{"material":1,"mode":4,"attributes":{"JOINTS_0":10,"NORMAL":8,"POSITION":7,"TEXCOORD_0":9,"WEIGHTS_0":11},"indices":6},{"material":2,"mode":4,"attributes":{"JOINTS_0":16,"NORMAL":14,"POSITION":13,"TEXCOORD_0":15,"WEIGHTS_0":17},"indices":12}]}],"skins":[{"joints":[4,6,7,12,22,23,36,24,25,51,52,53,54,26,27,13,10,8,16,14,37,39,40,42,43,29,48,49,30,31,33,45,46,34,18,19,20],"inverseBindMatrices":18,"skeleton":4}],"nodes":[{"name":"RootNode","translation":[0,0,0],"rotation":[0,0,0,1],"scale":[1,1,1],"children":[1,57]},{"name":"pm0133_00","translation":[0,0,0],"rotation":[-1.56958236630089e-7,0,0,1],"scale":[2.53999996185303,2.53999996185303,2.53999996185303],"children":[2,56]},{"name":"Origin","translation":[0,0,0],"rotation":[-2.64697796016969e-23,0,0,1],"scale":[1,1,1],"children":[3]},{"name":"Waist","translation":[0,0.130902007222176,-0.0108004994690418],"rotation":[0.498832285404205,-0.498797744512558,0.501199543476105,0.501164793968201],"scale":[1,1,1],"children":[4,22]},{"name":"Hips","translation":[0,0,0],"rotation":[-0.00237172562628984,0.0154933398589492,0.999877154827118,0.0000359596233465709],"scale":[1.00000011920929,1,0.999999940395355],"children":[5,6,12,18]},{"name":"EndHips","translation":[0.0997633785009384,1.04308126580577e-8,-3.81469718035987e-8],"rotation":[1.34953803494748e-18,-1.91780918860137e-32,-1.42108564092679e-14,1],"scale":[0.999999821186066,0.99999988079071,0.99999988079071]},{"name":"LThigh","translation":[0.0430857092142105,0.0350000001490116,0.00463986396789551],"rotation":[-0.0106750605627894,-0.723455727100372,0.0111902868375182,0.6901975274086],"scale":[1,0.999999761581421,0.999999821186066],"children":[7]},{"name":"LLeg","translation":[0.0409651547670364,0,0],"rotation":[3.54842057701064e-14,0.354239344596863,-1.34415192531664e-14,0.935154795646667],"scale":[0.999999940395355,1,0.999999940395355],"children":[8]},{"name":"LFoot","translation":[0.0380577184259892,4.76837147544984e-9,2.8610228852699e-8],"rotation":[0.00000274594913207693,0.901824772357941,-8.37751713334001e-7,-0.432101935148239],"scale":[1,1,1],"children":[9,10]},{"name":"EndLFoot","translation":[0.0480592101812363,4.76837147544984e-9,0],"rotation":[-1.70644452312849e-21,-2.7162882074448e-35,1.59178226155632e-14,1],"scale":[1,1,1]},{"name":"LToe","translation":[0.0234527960419655,4.44089199923895e-18,-0.0358677133917809],"rotation":[-1.70644452312849e-21,-2.7162882074448e-35,1.59178226155632e-14,1],"scale":[1,1,1],"children":[11]},{"name":"EndLToe","translation":[0.0423691980540752,-4.44089199923895e-18,2.38418573772492e-9],"rotation":[7.32653255583823e-21,2.5410988417629e-21,1.59178226155632e-14,1],"scale":[1,1,1]},{"name":"RThigh","translation":[0.0430857092142105,-0.0350000001490116,0.00463940622285008],"rotation":[-0.0106750605627894,-0.723455727100372,0.0111902868375182,0.6901975274086],"scale":[1,0.999999761581421,0.999999821186066],"children":[13]},{"name":"RLeg","translation":[0.0409655272960663,4.44089199923895e-18,1.90734859017994e-8],"rotation":[2.50548063199241e-13,0.354238897562027,-5.81188417704548e-13,0.935154974460602],"scale":[0.999999940395355,1,0.999999940395355],"children":[14]},{"name":"RFoot","translation":[0.0380578078329563,4.76837147544984e-9,1.90734859017994e-8],"rotation":[0.00042760549695231,0.901824116706848,0.000885870598722249,-0.432102143764496],"scale":[1,1,1.00000011920929],"children":[15,16]},{"name":"EndRFoot","translation":[0.0480592995882034,4.76837147544984e-9,0],"rotation":[3.54946722826456e-20,-1.6940658945086e-21,-2.22044604925031e-14,1],"scale":[1,1.00000023841858,1.00000023841858]},{"name":"RToe","translation":[0.0234528016299009,4.76837147544984e-9,-0.0358678139746189],"rotation":[3.54946722826456e-20,-1.6940658945086e-21,-2.22044604925031e-14,1],"scale":[1,1.00000023841858,1.00000023841858],"children":[17]},{"name":"EndRToe","translation":[0.0423691980540752,8.88178399847791e-18,4.44089199923895e-18],"rotation":[-7.25573300398708e-20,-8.470329472543e-22,2.01616501271928e-13,1],"scale":[1,0.99999988079071,0.99999988079071]},{"name":"Tail1","translation":[0.0622569173574448,1.07288355977175e-8,-0.0154535192996264],"rotation":[1.34953803494748e-18,-1.91780918860137e-32,-1.42108564092679e-14,1],"scale":[0.999999821186066,0.99999988079071,0.99999988079071],"children":[19]},{"name":"Tail2","translation":[0.0698815882205963,-5.55111499904869e-19,-9.53674295089968e-9],"rotation":[-4.65849406028506e-19,4.54747350886464e-13,-4.2632564145606e-14,1],"scale":[1,1.00000023841858,1.00000023841858],"children":[20]},{"name":"Tail3","translation":[0.068401612341404,0,-9.53674295089968e-9],"rotation":[4.21832788849329e-18,1.79838140170861e-31,4.2632564145606e-14,1],"scale":[1,0.99999988079071,0.99999988079071],"children":[21]},{"name":"EndTail3","translation":[0.0798636823892593,5.9604643443123e-10,-9.53674295089968e-9],"rotation":[1.3507307518426e-19,1.91950384737908e-33,1.4210854715202e-14,1],"scale":[1,1.00000023841858,1.00000023841858]},{"name":"Spine1","translation":[0,0,0],"rotation":[-0.0000219345092773438,0.0000110000837594271,2.41281439272711e-10,1],"scale":[1,1,1],"children":[23]},{"name":"Spine2","translation":[0.0346681028604507,5.82076596124248e-13,1.90734859017994e-8],"rotation":[-0.00000619358343101339,0.262398064136505,-0.00000151158803873841,0.964959740638733],"scale":[1,1,1],"children":[24,29,51]},{"name":"LShoulder","translation":[0.0234433263540268,-0.0234533995389938,0.00843380950391293],"rotation":[0.361175954341888,-0.14924056828022,0.899584531784058,-0.195004612207413],"scale":[0.99999988079071,1,0.999999940395355],"children":[25]},{"name":"LArm","translation":[0.0246675871312618,1.90734859017994e-8,-1.90734859017994e-8],"rotation":[0.00284533435478806,-0.249061495065689,-0.245543673634529,0.936839699745178],"scale":[0.999999642372131,0.999999940395355,0.999999821186066],"children":[26]},{"name":"LForeArm","translation":[0.059356402605772,-4.44089199923895e-18,-9.53674295089968e-9],"rotation":[1.51976982431037e-13,-0.080666296184063,4.68533632030921e-13,0.99674117565155],"scale":[1,1,1],"children":[27]},{"name":"LHand","translation":[0.0390451997518539,0,9.53674295089968e-9],"rotation":[8.36180220176175e-7,-0.548454761505127,5.48454636373208e-7,0.836180210113525],"scale":[1.00000011920929,1,1.00000011920929],"children":[28]},{"name":"EndLHand","translation":[0.0392441898584366,0,-7.15255721317476e-9],"rotation":[-4.54747784567333e-13,-4.54747350886464e-13,4.4894639323115e-15,1],"scale":[1,0.99999988079071,0.99999988079071]},{"name":"Neck","translation":[0.033628910779953,2.71050537062924e-22,-1.90734859017994e-8],"rotation":[0.00000105747449197224,0.348494112491608,4.14567807638377e-7,0.937310993671417],"scale":[0.999999821186066,1,0.999999821186066],"children":[30,33,36,45,48]},{"name":"FeelerA1","translation":[0.0134609891101718,0,0.0466733910143375],"rotation":[0.00000142830697313912,0.989572048187256,-0.00000129316981656302,-0.144038796424866],"scale":[1,1,1],"children":[31]},{"name":"FeelerA2","translation":[0.0418285056948662,-2.91038298062124e-13,0],"rotation":[7.13280075195083e-14,-0.149811387062073,4.70745567093117e-13,0.988714575767517],"scale":[1.00000023841858,1,1.00000023841858],"children":[32]},{"name":"EndFeelerA2","translation":[0.0514806918799877,0,4.76837147544984e-9],"rotation":[-2.67874169569172e-20,2.98023223876953e-8,9.09494701772928e-13,1],"scale":[1,1,1]},{"name":"FeelerB1","translation":[0.012185487896204,2.91038298062124e-13,-0.0194779112935066],"rotation":[-0.589092254638672,-2.89787607243852e-7,0.80806577205658,-9.16848421184113e-7],"scale":[1,1,1],"children":[34]},{"name":"FeelerB2","translation":[0.0349582098424435,8.13151611188773e-22,1.90734859017994e-8],"rotation":[3.75539998099075e-22,8.67361737988404e-19,-1.4210854715202e-14,1],"scale":[1,1,1],"children":[35]},{"name":"EndFeelerB2","translation":[0.0466658100485802,-5.82076596124248e-13,3.55271359939116e-17],"rotation":[-8.70194004405785e-22,1.23662005706505e-35,-1.4210854715202e-14,1],"scale":[1,1,1]},{"name":"Head","translation":[0.0267349146306515,-2.91038298062124e-13,0],"rotation":[-4.40955823219932e-15,-0.00969489756971598,-4.54811427234858e-13,0.999953031539917],"scale":[1,1,1],"children":[37,39,42]},{"name":"Hair","translation":[0.124033011496067,-1.00003667569126e-8,-1.90734859017994e-8],"rotation":[8.90203593795348e-23,-0.0523289814591408,2.20467059258823e-21,0.998629927635193],"scale":[1,1,1],"children":[38]},{"name":"EndHair","translation":[0.02739467471838,2.91038298062124e-13,9.53674295089968e-9],"rotation":[3.70576914423756e-22,5.55111512312578e-17,1.32348898008484e-23,1],"scale":[1,1,1]},{"name":"LEar1","translation":[0.0819216147065163,-0.0619639381766319,-0.00745047070086002],"rotation":[-0.00644840998575091,0.200135245919228,-0.468345820903778,0.860555946826935],"scale":[1,1,0.999999940395355],"children":[40]},{"name":"LEar2","translation":[0.0666943714022636,-1.90734859017994e-8,0],"rotation":[6.51925757821914e-9,1.0244545656235e-8,2.9802315282268e-8,1],"scale":[1.00000023841858,1,1.00000023841858],"children":[41]},{"name":"EndLEar2","translation":[0.133305951952934,-3.55271359939116e-17,9.53674295089968e-9],"rotation":[7.45058059692383e-9,2.3283064365387e-9,-3.38271077815477e-17,1],"scale":[1,1,1.00000023841858]},{"name":"REar1","translation":[0.0819220691919327,0.061963889747858,-0.0074505852535367],"rotation":[0.00644849520176649,0.200135245919228,0.468345403671265,0.860556125640869],"scale":[0.999999940395355,0.999999940395355,1.00000011920929],"children":[43]},{"name":"REar2","translation":[0.0666900053620338,9.53674259562831e-8,-1.04904174236253e-7],"rotation":[-1.02445492089487e-8,-9.31323129726991e-10,4.47034871342566e-8,1],"scale":[0.999999940395355,0.999999940395355,1.00000023841858],"children":[44]},{"name":"EndREar2","translation":[0.133310049772263,-5.72204577053981e-8,0],"rotation":[-1.38777878078145e-17,2.09547561524914e-8,1.47451478914416e-17,1],"scale":[1.00000011920929,1,0.999999821186066]},{"name":"LFeeler1","translation":[0.00832652114331722,-0.0625682100653648,0.0160805843770504],"rotation":[-0.00673634791746736,0.0329641290009022,0.986097157001495,-0.162728056311607],"scale":[1,1.00000023841858,1.00000011920929],"children":[46]},{"name":"LFeeler2","translation":[0.036324642598629,-1.77635679969558e-17,4.76837147544984e-9],"rotation":[-0.00993066933006048,-0.0407464019954205,-0.236579656600952,0.970706522464752],"scale":[1.00000023841858,1.00000011920929,1.00000023841858],"children":[47]},{"name":"EndLFeeler2","translation":[0.0492306016385555,9.53674295089968e-9,-1.66893006081636e-8],"rotation":[5.58793589178208e-9,-6.93889655088519e-17,-7.45058326145909e-9,1],"scale":[0.999999642372131,0.999999940395355,0.999999701976776]},{"name":"RFeeler1","translation":[0.00832655932754278,0.0625682175159454,0.0160806123167276],"rotation":[-0.00673627434298396,-0.0329637043178082,0.986097157001495,0.16272796690464],"scale":[1,0.999999940395355,0.99999988079071],"children":[49]},{"name":"RFeeler2","translation":[0.0363244153559208,-8.58306847817403e-8,-7.62939436071974e-8],"rotation":[0.00993066839873791,-0.0407463945448399,0.236579716205597,0.970706522464752],"scale":[1,1.00000011920929,1],"children":[50]},{"name":"EndRFeeler2","translation":[0.0492308884859085,1.77635679969558e-17,9.53674295089968e-9],"rotation":[1.86264503820865e-9,-7.45058059692383e-9,-1.49011611938477e-8,1],"scale":[1,1,1]},{"name":"RShoulder","translation":[0.0234434213489294,0.0234533995389938,0.00843377131968737],"rotation":[0.36117622256279,0.149237915873528,0.899584770202637,0.195005252957344],"scale":[1,1.00000011920929,1],"children":[52]},{"name":"RArm","translation":[0.0246679969131947,2.95639040359674e-7,1.52587887214395e-7],"rotation":[-0.00284557742998004,-0.249061048030853,0.245543166995049,0.936839938163757],"scale":[0.99999988079071,0.999999761581421,1],"children":[53]},{"name":"RForeArm","translation":[0.0593560971319675,4.76837147544984e-9,0],"rotation":[2.29620982601306e-13,-0.0806658267974854,1.85831269805797e-14,0.99674117565155],"scale":[1,1,1],"children":[54]},{"name":"RHand","translation":[0.0390451177954674,4.44089199923895e-18,1.90734859017994e-8],"rotation":[-0.00000171851593222527,-0.548456728458405,0.00000101679802355648,0.83617889881134],"scale":[1.00000023841858,1,1.00000023841858],"children":[55]},{"name":"EndRHand","translation":[0.0392444133758545,0,4.44089199923895e-18],"rotation":[-4.54746862995487e-13,-4.54747350886464e-13,-1.88737914186277e-14,1],"scale":[1,1,1]},{"name":"pm0133_00_Skin","translation":[0,0,0],"rotation":[-2.64697796016969e-23,0,0,1],"scale":[1,1,1]},{"name":"Eevee","translation":[0,0,0],"rotation":[-0.70710676908493,0,0,0.70710676908493],"scale":[2.53999996185303,2.53999996185303,2.53999996185303],"mesh":0,"skin":0}]}