{"asset":{"generator":"FBX2glTF v0.9.7","version":"2.0"},"scene":0,"buffers":[{"byteLength":287088,"uri":"data:application/octet-stream;base64,"}],"bufferViews":[{"buffer":0,"byteLength":18744,"byteOffset":0,"target":34963},{"buffer":0,"byteLength":29256,"byteOffset":18744,"target":34962},{"buffer":0,"byteLength":29256,"byteOffset":48000,"target":34962},{"buffer":0,"byteLength":19504,"byteOffset":77256,"target":34962},{"buffer":0,"byteLength":19504,"byteOffset":96760,"target":34962},{"buffer":0,"byteLength":39008,"byteOffset":116264,"target":34962},{"buffer":0,"byteLength":17832,"byteOffset":155272,"target":34963},{"buffer":0,"byteLength":22980,"byteOffset":173104,"target":34962},{"buffer":0,"byteLength":22980,"byteOffset":196084,"target":34962},{"buffer":0,"byteLength":15320,"byteOffset":219064,"target":34962},{"buffer":0,"byteLength":15320,"byteOffset":234384,"target":34962},{"buffer":0,"byteLength":30640,"byteOffset":249704,"target":34962},{"buffer":0,"byteLength":384,"byteOffset":280344,"target":34963},{"buffer":0,"byteLength":600,"byteOffset":280728,"target":34962},{"buffer":0,"byteLength":600,"byteOffset":281328,"target":34962},{"buffer":0,"byteLength":400,"byteOffset":281928,"target":34962},{"buffer":0,"byteLength":400,"byteOffset":282328,"target":34962},{"buffer":0,"byteLength":800,"byteOffset":282728,"target":34962},{"buffer":0,"byteLength":96,"byteOffset":283528,"target":34963},{"buffer":0,"byteLength":180,"byteOffset":283624,"target":34962},{"buffer":0,"byteLength":180,"byteOffset":283804,"target":34962},{"buffer":0,"byteLength":120,"byteOffset":283984,"target":34962},{"buffer":0,"byteLength":120,"byteOffset":284104,"target":34962},{"buffer":0,"byteLength":240,"byteOffset":284224,"target":34962},{"buffer":0,"byteLength":2624,"byteOffset":284464}],"scenes":[{"name":"Root Scene","nodes":[0]}],"accessors":[{"componentType":5123,"type":"SCALAR","count":9372,"bufferView":0,"byteOffset":0},{"componentType":5126,"type":"VEC3","count":2438,"bufferView":1,"byteOffset":0,"min":[-0.304284006357193,-0.486460983753204,0.113159999251366],"max":[0.304284006357193,1.28298997879028,0.734698951244354]},{"componentType":5126,"type":"VEC3","count":2438,"bufferView":2,"byteOffset":0},{"componentType":5126,"type":"VEC2","count":2438,"bufferView":3,"byteOffset":0},{"componentType":5123,"type":"VEC4","count":2438,"bufferView":4,"byteOffset":0},{"componentType":5126,"type":"VEC4","count":2438,"bufferView":5,"byteOffset":0},{"componentType":5123,"type":"SCALAR","count":8916,"bufferView":6,"byteOffset":0},{"componentType":5126,"type":"VEC3","count":1915,"bufferView":7,"byteOffset":0,"min":[-0.324593991041183,-0.499101966619492,-0.018334100022912],"max":[0.324593991041183,0.262998998165131,0.796034097671509]},{"componentType":5126,"type":"VEC3","count":1915,"bufferView":8,"byteOffset":0},{"componentType":5126,"type":"VEC2","count":1915,"bufferView":9,"byteOffset":0},{"componentType":5123,"type":"VEC4","count":1915,"bufferView":10,"byteOffset":0},{"componentType":5126,"type":"VEC4","count":1915,"bufferView":11,"byteOffset":0},{"componentType":5123,"type":"SCALAR","count":192,"bufferView":12,"byteOffset":0},{"componentType":5126,"type":"VEC3","count":50,"bufferView":13,"byteOffset":0,"min":[-0.116352997720242,-0.477142930030823,0.387010008096695],"max":[0.116352997720242,-0.368306994438171,0.518835008144379]},{"componentType":5126,"type":"VEC3","count":50,"bufferView":14,"byteOffset":0},{"componentType":5126,"type":"VEC2","count":50,"bufferView":15,"byteOffset":0},{"componentType":5123,"type":"VEC4","count":50,"bufferView":16,"byteOffset":0},{"componentType":5126,"type":"VEC4","count":50,"bufferView":17,"byteOffset":0},{"componentType":5123,"type":"SCALAR","count":48,"bufferView":18,"byteOffset":0},{"componentType":5126,"type":"VEC3","count":15,"bufferView":19,"byteOffset":0,"min":[-0.0601219981908798,-0.491292953491211,0.327410012483597],"max":[0.0601234994828701,-0.43605700135231,0.368909984827042]},{"componentType":5126,"type":"VEC3","count":15,"bufferView":20,"byteOffset":0},{"componentType":5126,"type":"VEC2","count":15,"bufferView":21,"byteOffset":0},{"componentType":5123,"type":"VEC4","count":15,"bufferView":22,"byteOffset":0},{"componentType":5126,"type":"VEC4","count":15,"bufferView":23,"byteOffset":0},{"componentType":5126,"type":"MAT4","count":41,"bufferView":24,"byteOffset":0}],"images":[{"name":"pm0136_00_BodyB1.png","uri":"data:application/octet-stream;base64,"},{"name":"pm0136_00_BodyA1.png","uri":"data:application/octet-stream;base64,"},{"name":"pm0136_00_Eye1.png","uri":"data:application/octet-stream;base64,"},{"name":"pm0136_00_Mouth1.png","uri":"data:application/octet-stream;base64,"}],"samplers":[{}],"textures":[{"name":"Map #0","sampler":0,"source":0},{"name":"Map #1","sampler":0,"source":1},{"name":"Map #2","sampler":0,"source":2},{"name":"Map #3","sampler":0,"source":3}],"materials":[{"name":"Material #10","alphaMode":"OPAQUE","extras":{"fromFBX":{"shadingModel":"Phong","isTruePBR":false}},"pbrMetallicRoughness":{"baseColorTexture":{"index":0,"texCoord":0},"baseColorFactor":[1,1,1,1],"metallicFactor":0.400000005960464,"roughnessFactor":0.70710676908493}},{"name":"Material #11","alphaMode":"OPAQUE","extras":{"fromFBX":{"shadingModel":"Phong","isTruePBR":false}},"pbrMetallicRoughness":{"baseColorTexture":{"index":1,"texCoord":0},"baseColorFactor":[1,1,1,1],"metallicFactor":0.400000005960464,"roughnessFactor":0.70710676908493}},{"name":"Material #12","alphaMode":"OPAQUE","extras":{"fromFBX":{"shadingModel":"Phong","isTruePBR":false}},"pbrMetallicRoughness":{"baseColorTexture":{"index":2,"texCoord":0},"baseColorFactor":[1,1,1,1],"metallicFactor":0.400000005960464,"roughnessFactor":0.70710676908493}},{"name":"Material #13","alphaMode":"OPAQUE","extras":{"fromFBX":{"shadingModel":"Phong","isTruePBR":false}},"pbrMetallicRoughness":{"baseColorTexture":{"index":3,"texCoord":0},"baseColorFactor":[1,1,1,1],"metallicFactor":0.400000005960464,"roughnessFactor":0.70710676908493}}],"meshes":[{"name":"Flareon","primitives":[{"material":0,"mode":4,"attributes":{"JOINTS_0":4,"NORMAL":2,"POSITION":1,"TEXCOORD_0":3,"WEIGHTS_0":5},"indices":0},{"material":1,"mode":4,"attributes":{"JOINTS_0":10,"NORMAL":8,"POSITION":7,"TEXCOORD_0":9,"WEIGHTS_0":11},"indices":6},{"material":2,"mode":4,"attributes":{"JOINTS_0":16,"NORMAL":14,"POSITION":13,"TEXCOORD_0":15,"WEIGHTS_0":17},"indices":12},{"material":3,"mode":4,"attributes":{"JOINTS_0":22,"NORMAL":20,"POSITION":19,"TEXCOORD_0":21,"WEIGHTS_0":23},"indices":18}]}],"skins":[{"joints":[23,24,25,26,22,33,35,32,61,63,60,29,30,31,28,58,4,6,37,59,10,12,8,7,18,20,16,15,14,48,49,50,38,42,44,46,40,55,56,52,53],"inverseBindMatrices":24,"skeleton":28}],"nodes":[{"name":"RootNode","translation":[0,0,0],"rotation":[0,0,0,1],"scale":[1,1,1],"children":[1,66]},{"name":"pm0136_00","translation":[0,0,0],"rotation":[-1.56958236630089e-7,0,0,1],"scale":[2.53999996185303,2.53999996185303,2.53999996185303],"children":[2,65]},{"name":"Origin","translation":[0,0,0],"rotation":[-2.64697796016969e-23,0,0,1],"scale":[1,1,1],"children":[3]},{"name":"Waist","translation":[0,0.368970990180969,-0.0306576993316412],"rotation":[-0.507600903511047,0.507604539394379,-0.492278039455414,-0.492281675338745],"scale":[1,1,1],"children":[4,28]},{"name":"Hips","translation":[0,0,0],"rotation":[0.015323992818594,-0.00000307965274259914,0.999882578849792,-0.00000121994628443645],"scale":[1,1,1],"children":[5,6,14,22]},{"name":"EndHips","translation":[0.215064004063606,3.63797872577655e-14,0],"rotation":[1.13686837721616e-13,1.36424205265939e-12,3.67436116255337e-14,1],"scale":[1,1,1]},{"name":"LThigh","translation":[0.0801668912172318,0.0983528941869736,0.0315997675061226],"rotation":[0.00000225552457777667,-0.696323990821838,-0.00000232591787607817,0.717727601528168],"scale":[0.999999940395355,1,1.00000011920929],"children":[7]},{"name":"LLeg","translation":[0.133574977517128,9.53674295089968e-9,9.15527323286369e-7],"rotation":[1.22673328743425e-13,0.431926310062408,-5.87485450369817e-14,0.901908934116364],"scale":[1,1,1],"children":[8]},{"name":"LFoot","translation":[0.119355037808418,1.77635679969558e-17,-9.15527323286369e-7],"rotation":[0.00000160881870669982,0.948084890842438,-0.00000417464389101951,-0.318017363548279],"scale":[0.999999940395355,1,0.999999940395355],"children":[9,10]},{"name":"EndLFoot","translation":[0.119331993162632,0,0],"rotation":[-2.12985798691998e-19,2.70985037615612e-32,-1.27231504411934e-13,1],"scale":[1,1,1]},{"name":"LToe1","translation":[0.0128656001761556,2.8610228852699e-8,-0.104526005685329],"rotation":[-2.12985798691998e-19,2.70985037615612e-32,-1.27231504411934e-13,1],"scale":[1,1,1],"children":[11,12]},{"name":"EndLToe1","translation":[0.0877941846847534,0,4.76837147544984e-9],"rotation":[3.96714787804666e-20,-1.05879118406788e-22,-1.27231558622043e-13,1],"scale":[1,1,1]},{"name":"LToe2","translation":[0.0475646965205669,-1.90734859017994e-8,-0.0259053986519575],"rotation":[3.96714787804666e-20,-1.05879118406788e-22,-1.27231558622043e-13,1],"scale":[1,1,1],"children":[13]},{"name":"EndLToe2","translation":[0.0679491013288498,2.8610228852699e-8,0],"rotation":[2.10219499928467e-19,-2.67465548754533e-32,-1.27231558622043e-13,1],"scale":[1,1,1]},{"name":"RThigh","translation":[0.080167293548584,-0.0983528941869736,0.0316001139581203],"rotation":[0.00000225552457777667,-0.696323990821838,-0.00000232591787607817,0.717727601528168],"scale":[0.999999940395355,1,1.00000011920929],"children":[15]},{"name":"RLeg","translation":[0.133573904633522,9.53674295089968e-9,0.00000164031973781675],"rotation":[1.22673328743425e-13,0.431926310062408,-5.87485450369817e-14,0.901908934116364],"scale":[1,1,1],"children":[16]},{"name":"RFoot","translation":[0.119355984032154,0,-5.91278080719349e-7],"rotation":[0.00000160881870669982,0.948084890842438,-0.00000417464389101951,-0.318017363548279],"scale":[0.999999940395355,1,0.999999940395355],"children":[17,18]},{"name":"EndRFoot","translation":[0.119333013892174,0,7.34329205442918e-7],"rotation":[-2.12985798691998e-19,2.70985037615612e-32,-1.27231504411934e-13,1],"scale":[1,1,1]},{"name":"RToe1","translation":[0.0128659820184112,2.8610228852699e-8,-0.104525990784168],"rotation":[-2.12985798691998e-19,2.70985037615612e-32,-1.27231504411934e-13,1],"scale":[1,1,1],"children":[19,20]},{"name":"EndRToe1","translation":[0.0877940058708191,0,4.76837147544984e-9],"rotation":[3.96714787804666e-20,-1.05879118406788e-22,-1.27231558622043e-13,1],"scale":[1,1,1]},{"name":"RToe2","translation":[0.0475647151470184,-1.90734859017994e-8,-0.0259053986519575],"rotation":[3.96714787804666e-20,-1.05879118406788e-22,-1.27231558622043e-13,1],"scale":[1,1,1],"children":[21]},{"name":"EndRToe2","translation":[0.067949004471302,2.8610228852699e-8,-6.03496985718266e-8],"rotation":[2.10219499928467e-19,-2.67465548754533e-32,-1.27231558622043e-13,1],"scale":[1,1,1]},{"name":"Tail1","translation":[0.184122964739799,-3.63797872577655e-14,0.00818431843072176],"rotation":[1,3.75632034158024e-13,-0.00000200000135919254,1.94707070022559e-7],"scale":[1,1,1],"children":[23]},{"name":"Tail2","translation":[0.186336934566498,3.63797872577655e-14,-7.62939436071974e-8],"rotation":[1.13686837721616e-13,-1.30739863379858e-12,6.96085983992178e-14,1],"scale":[1,1,1],"children":[24]},{"name":"Tail3","translation":[0.173805996775627,3.63797872577655e-14,7.62939436071974e-8],"rotation":[1.13686837721616e-13,-1.30739863379858e-12,6.96085983992178e-14,1],"scale":[1,1,1],"children":[25]},{"name":"Tail4","translation":[0.184476003050804,6.77626317413762e-22,-7.62939436071974e-8],"rotation":[1.13686837721616e-13,-1.30739863379858e-12,6.96085983992178e-14,1],"scale":[1,1,1],"children":[26]},{"name":"Tail5","translation":[0.168089970946312,2.54658517580622e-13,-7.62939436071974e-8],"rotation":[1.13686837721616e-13,-1.30739863379858e-12,6.96085983992178e-14,1],"scale":[1,1,1],"children":[27]},{"name":"EndTail5","translation":[0.389764845371246,-1.81898929512564e-13,-7.10542719878232e-17],"rotation":[1.13686837721616e-13,-1.30739863379858e-12,6.96085983992178e-14,1],"scale":[1,1,1]},{"name":"Spine1","translation":[0,0,0],"rotation":[-9.53674543779925e-7,-0.00000143051147460938,-1.35713695056244e-12,1],"scale":[1,1,1],"children":[29]},{"name":"Spine2","translation":[0.0822385996580124,5.82076596124248e-13,0],"rotation":[0.00000149944298755145,0.027243634685874,-4.08654159400612e-8,0.999628841876984],"scale":[1.00000011920929,1,1.00000011920929],"children":[30,37,58]},{"name":"LShoulder","translation":[0.10902801156044,-0.0291312038898468,-0.00447074882686138],"rotation":[0.608004510402679,-0.344104290008545,0.62078845500946,-0.3557308614254],"scale":[1,1,1],"children":[31]},{"name":"LArm","translation":[0.0792512148618698,3.81469718035987e-8,-3.55271359939116e-17],"rotation":[0.0186684429645538,0.0381625033915043,-0.494576156139374,0.868095338344574],"scale":[0.999999821186066,0.99999988079071,0.999999821186066],"children":[32]},{"name":"LForeArm","translation":[0.193725928664207,-9.53674295089968e-9,-2.8610228852699e-8],"rotation":[-8.70323507273091e-14,-0.116020113229752,-1.01661538074501e-14,0.993246853351593],"scale":[1,1,1],"children":[33]},{"name":"LHand","translation":[0.117597036063671,9.53674295089968e-9,7.62939436071974e-8],"rotation":[0.00130885560065508,-0.652992308139801,0.00113246985711157,0.757362544536591],"scale":[0.999999940395355,1,1],"children":[34,35]},{"name":"EndLHand","translation":[0.0722917765378952,1.90734859017994e-8,4.76837147544984e-9],"rotation":[7.49537821343621e-20,1.13686837721616e-13,1.37223565843669e-13,1],"scale":[1,1,1]},{"name":"LFinger","translation":[0.0385589972138405,0,-0.0234434995800257],"rotation":[7.49537821343621e-20,1.13686837721616e-13,1.37223565843669e-13,1],"scale":[1,1,1],"children":[36]},{"name":"EndLFinger","translation":[0.0599561482667923,-1.90734859017994e-8,-9.31322519104327e-11],"rotation":[1.03991957538036e-19,1.13686837721616e-13,1.37223565843669e-13,1],"scale":[1,1,1]},{"name":"Neck","translation":[0.136236011981964,-1.00000763225694e-8,0],"rotation":[-3.63189968766164e-7,0.214958667755127,-3.63189855079327e-7,0.976623117923737],"scale":[1.00000023841858,1,1.00000023841858],"children":[38,48]},{"name":"Feeler","translation":[0,0,0],"rotation":[2.27373675443232e-13,-2.77555756156289e-17,2.64697796016969e-22,1],"scale":[1,1,1],"children":[39,40,42,44,46]},{"name":"EndFeeler","translation":[0.348122864961624,0,3.81469718035987e-8],"rotation":[-2.27373675443232e-13,-2.77555756156289e-17,3.70576914423756e-22,1],"scale":[1,1,1]},{"name":"FeelerA","translation":[-0.00684722885489464,1.00000763225694e-8,0.0871075764298439],"rotation":[0.675059258937836,-8.42190388539166e-7,0.737763524055481,0.00000105165258901252],"scale":[0.99999988079071,1,0.99999988079071],"children":[41]},{"name":"EndFeelerA","translation":[0.187705993652344,-9.99978500004772e-9,0],"rotation":[-2.11758211570026e-22,5.55111512312578e-17,-4.54747350886464e-13,1],"scale":[1,1,1]},{"name":"FeelerB","translation":[0.00681644445285201,-9.99978500004772e-9,-0.0937354639172554],"rotation":[-0.00000195460552276927,0.807154834270477,0.00000187706621090911,0.590339779853821],"scale":[0.999999940395355,1,0.999999940395355],"children":[43]},{"name":"EndFeelerB","translation":[0.173804044723511,-9.99963933878689e-9,-3.81469718035987e-8],"rotation":[-1.90582413132218e-21,1.49011611938477e-8,1.13686837721616e-13,1],"scale":[1,1,1]},{"name":"LFeeler","translation":[0.00153968809172511,-0.0769018903374672,-0.0100233647972345],"rotation":[0.375841856002808,-0.524072527885437,0.598952412605286,-0.474707186222076],"scale":[0.999999940395355,1.00000011920929,1],"children":[45]},{"name":"EndLFeeler","translation":[0.172814056277275,1.90734859017994e-8,-1.90734859017994e-8],"rotation":[4.4703483581543e-8,-1.11758682308505e-8,4.7878357349048e-16,1],"scale":[1.00000023841858,1,1.00000023841858]},{"name":"RFeeler","translation":[0.00153999321628362,0.0769018903374672,-0.010023326613009],"rotation":[0.375841826200485,0.524072587490082,0.598952412605286,0.474707126617432],"scale":[1,1,1],"children":[47]},{"name":"EndRFeeler","translation":[0.172813951969147,-3.43322739126961e-7,-4.57763661643185e-7],"rotation":[-1.49011611938477e-8,-2.79396816793565e-9,7.45058148510225e-9,1],"scale":[0.99999988079071,1,1]},{"name":"Head","translation":[0.0631192028522491,-5.82076596124248e-13,3.55271359939116e-17],"rotation":[2.32721340028691e-13,0.123375862836838,-2.89332427916462e-14,0.99235999584198],"scale":[1,1,1],"children":[49,52,55]},{"name":"FeelerC1","translation":[0.221157908439636,1.00006580794343e-8,-9.53674295089968e-9],"rotation":[-0.109859742224216,0.700182914733887,-0.200417101383209,0.676393151283264],"scale":[1,0.99999988079071,1],"children":[50]},{"name":"FeelerC2","translation":[0.115290008485317,-1.90734859017994e-8,7.62939436071974e-8],"rotation":[-0.0119816018268466,-0.0482386760413647,0.2242461591959,0.973264157772064],"scale":[0.999999940395355,1.00000011920929,1.00000023841858],"children":[51]},{"name":"EndFeelerC2","translation":[0.164415076375008,1.66893006081636e-8,1.52587887214395e-7],"rotation":[-1.86264537127556e-9,-2.98023223876953e-8,1.86264503820865e-9,1],"scale":[1,0.99999988079071,0.999999940395355]},{"name":"LEar1","translation":[0.150788947939873,-0.0939203649759293,-0.0467171929776669],"rotation":[0.201749041676521,0.485777616500854,-0.506386160850525,0.68329381942749],"scale":[1.00000011920929,1.00000011920929,0.999999940395355],"children":[53]},{"name":"LEar2","translation":[0.175908967852592,-7.62939436071974e-8,3.81469718035987e-8],"rotation":[-6.14673041354763e-8,1.95577758432819e-8,1.49011647465613e-8,1],"scale":[0.99999988079071,0.999999761581421,0.999999701976776],"children":[54]},{"name":"EndLEar2","translation":[0.223896935582161,-3.81469718035987e-8,-5.72204577053981e-8],"rotation":[2.98023294931227e-8,-3.35276162388709e-8,-4.4703483581543e-8,1],"scale":[0.999999940395355,0.999999761581421,0.999999940395355]},{"name":"REar1","translation":[0.150788113474846,0.0939204171299934,-0.0467173866927624],"rotation":[-0.201748847961426,0.485777765512466,0.50638622045517,0.683293759822845],"scale":[1,1.00000023841858,0.999999940395355],"children":[56]},{"name":"REar2","translation":[0.175907984375954,1.14440915410796e-7,3.55271359939116e-17],"rotation":[7.45057970874541e-9,2.42143869400024e-8,4.4703483581543e-8,1],"scale":[1,1,1],"children":[57]},{"name":"EndREar2","translation":[0.223897054791451,7.62939436071974e-8,1.90734859017994e-8],"rotation":[1.86264514923096e-8,-5.21540712838942e-8,-4.47034871342566e-8,1],"scale":[0.99999988079071,0.99999988079071,0.999999701976776]},{"name":"RShoulder","translation":[0.10902801156044,0.0291311945766211,-0.00447051972150803],"rotation":[0.608004152774811,0.344104915857315,0.620788097381592,0.355731427669525],"scale":[1,1,1],"children":[59]},{"name":"RArm","translation":[0.0792511329054832,-1.14440915410796e-7,-8.58306862028257e-7],"rotation":[-0.0186683721840382,0.0381625406444073,0.494576126337051,0.868095397949219],"scale":[1.00000011920929,1.00000011920929,1.00000023841858],"children":[60]},{"name":"RForeArm","translation":[0.193727031350136,-5.72204577053981e-8,6.77108744184807e-7],"rotation":[-1.45053917878848e-14,-0.116020113229752,-1.69435928554571e-15,0.993246853351593],"scale":[1,1,1],"children":[61]},{"name":"RHand","translation":[0.117595992982388,-1.90734859017994e-8,-5.34057619461237e-7],"rotation":[-0.0075993537902832,-0.652960419654846,-0.00655238376930356,0.75732558965683],"scale":[1,1,1],"children":[62,63]},{"name":"EndRHand","translation":[0.0722920000553131,-9.53674295089968e-9,-4.44089199923895e-18],"rotation":[1.86264514923096e-9,2.27373675443232e-13,1.26121335597418e-13,1],"scale":[1,1,1]},{"name":"RFinger","translation":[0.0385589599609375,0,-0.0234436094760895],"rotation":[1.86264514923096e-9,2.27373675443232e-13,1.26121335597418e-13,1],"scale":[1,1,1],"children":[64]},{"name":"EndRFinger","translation":[0.0599559955298901,-1.90734859017994e-8,0],"rotation":[1.86264514923096e-9,2.27373675443232e-13,1.26121335597418e-13,1],"scale":[1,1,1]},{"name":"pm0136_00_BodySkin","translation":[0,0,0],"rotation":[-2.64697796016969e-23,0,0,1],"scale":[1,1,1]},{"name":"Flareon","translation":[0,0,0],"rotation":[-0.70710676908493,0,0,0.70710676908493],"scale":[2.53999996185303,2.53999996185303,2.53999996185303],"mesh":0,"skin":0}]}