{"asset":{"generator":"FBX2glTF v0.9.7","version":"2.0"},"scene":0,"buffers":[{"byteLength":212448,"uri":"data:application/octet-stream;base64,"}],"bufferViews":[{"buffer":0,"byteLength":28224,"byteOffset":0,"target":34963},{"buffer":0,"byteLength":36936,"byteOffset":28224,"target":34962},{"buffer":0,"byteLength":36936,"byteOffset":65160,"target":34962},{"buffer":0,"byteLength":24624,"byteOffset":102096,"target":34962},{"buffer":0,"byteLength":24624,"byteOffset":126720,"target":34962},{"buffer":0,"byteLength":49248,"byteOffset":151344,"target":34962},{"buffer":0,"byteLength":1296,"byteOffset":200592,"target":34963},{"buffer":0,"byteLength":1632,"byteOffset":201888,"target":34962},{"buffer":0,"byteLength":1632,"byteOffset":203520,"target":34962},{"buffer":0,"byteLength":1088,"byteOffset":205152,"target":34962},{"buffer":0,"byteLength":1088,"byteOffset":206240,"target":34962},{"buffer":0,"byteLength":2176,"byteOffset":207328,"target":34962},{"buffer":0,"byteLength":2944,"byteOffset":209504}],"scenes":[{"name":"Root Scene","nodes":[0]}],"accessors":[{"componentType":5123,"type":"SCALAR","count":14112,"bufferView":0,"byteOffset":0},{"componentType":5126,"type":"VEC3","count":3078,"bufferView":1,"byteOffset":0,"min":[-0.234385997056961,-0.458142012357712,9.99999940631824e-8],"max":[0.234386011958122,0.333424985408783,0.762723088264465]},{"componentType":5126,"type":"VEC3","count":3078,"bufferView":2,"byteOffset":0},{"componentType":5126,"type":"VEC2","count":3078,"bufferView":3,"byteOffset":0},{"componentType":5123,"type":"VEC4","count":3078,"bufferView":4,"byteOffset":0},{"componentType":5126,"type":"VEC4","count":3078,"bufferView":5,"byteOffset":0},{"componentType":5123,"type":"SCALAR","count":648,"bufferView":6,"byteOffset":0},{"componentType":5126,"type":"VEC3","count":136,"bufferView":7,"byteOffset":0,"min":[-0.0981284976005554,-0.441464006900787,0.429571002721786],"max":[0.0981284976005554,-0.321241974830627,0.551548004150391]},{"componentType":5126,"type":"VEC3","count":136,"bufferView":8,"byteOffset":0},{"componentType":5126,"type":"VEC2","count":136,"bufferView":9,"byteOffset":0},{"componentType":5123,"type":"VEC4","count":136,"bufferView":10,"byteOffset":0},{"componentType":5126,"type":"VEC4","count":136,"bufferView":11,"byteOffset":0},{"componentType":5126,"type":"MAT4","count":46,"bufferView":12,"byteOffset":0}],"images":[{"name":"pm0135_00_Body1.png","uri":"data:application/octet-stream;base64,"},{"name":"pm0135_00_Eye1.png","uri":"data:application/octet-stream;base64,"}],"samplers":[{}],"textures":[{"name":"Map #0","sampler":0,"source":0},{"name":"Map #1","sampler":0,"source":1}],"materials":[{"name":"Material #10","alphaMode":"OPAQUE","extras":{"fromFBX":{"shadingModel":"Phong","isTruePBR":false}},"pbrMetallicRoughness":{"baseColorTexture":{"index":0,"texCoord":0},"baseColorFactor":[1,1,1,1],"metallicFactor":0.400000005960464,"roughnessFactor":0.70710676908493}},{"name":"Material #11","alphaMode":"OPAQUE","extras":{"fromFBX":{"shadingModel":"Phong","isTruePBR":false}},"pbrMetallicRoughness":{"baseColorTexture":{"index":1,"texCoord":0},"baseColorFactor":[1,1,1,1],"metallicFactor":0.400000005960464,"roughnessFactor":0.70710676908493}}],"meshes":[{"name":"Jolteon","primitives":[{"material":0,"mode":4,"attributes":{"JOINTS_0":4,"NORMAL":2,"POSITION":1,"TEXCOORD_0":3,"WEIGHTS_0":5},"indices":0},{"material":1,"mode":4,"attributes":{"JOINTS_0":10,"NORMAL":8,"POSITION":7,"TEXCOORD_0":9,"WEIGHTS_0":11},"indices":6}]}],"skins":[{"joints":[4,6,22,24,28,7,30,31,14,8,10,12,26,15,16,18,20,74,39,75,33,32,34,35,37,76,77,79,40,54,56,52,44,48,50,42,46,58,72,60,69,67,64,62,70,65],"inverseBindMatrices":12,"skeleton":4}],"nodes":[{"name":"RootNode","translation":[0,0,0],"rotation":[0,0,0,1],"scale":[1,1,1],"children":[1,82]},{"name":"pm0135_00","translation":[0,0,0],"rotation":[-1.56958236630089e-7,0,0,1],"scale":[2.53999996185303,2.53999996185303,2.53999996185303],"children":[2,81]},{"name":"Origin","translation":[0,0,0],"rotation":[-2.64697796016969e-23,0,0,1],"scale":[1,1,1],"children":[3]},{"name":"Waist","translation":[0,0.382547974586487,-0.0341912992298603],"rotation":[0.485692828893661,-0.485689967870712,0.513911843299866,0.513908922672272],"scale":[1,1,1],"children":[4,30]},{"name":"Hips","translation":[0,0,0],"rotation":[-0.0282182525843382,0.00000246323543251492,0.999601781368256,-0.00000119654043828632],"scale":[1.00000011920929,1,1.00000011920929],"children":[5,6,14,22]},{"name":"EndHips","translation":[0.305352061986923,-1.00000399072542e-8,-7.10542719878232e-17],"rotation":[-1.20668203030441e-23,-2.38131898854658e-36,1.97344365241575e-13,1],"scale":[1,1,1]},{"name":"LThigh","translation":[0.0954588204622269,0.0868799090385437,0.0428747944533825],"rotation":[-0.00000160066906573775,-0.547503054141998,8.67051596742385e-7,0.836803674697876],"scale":[1,1,1],"children":[7]},{"name":"LLeg","translation":[0.099309116601944,-2.8610228852699e-8,-3.81469718035987e-8],"rotation":[-4.05082536077014e-23,0.314981341362,7.94347136205124e-22,0.949097871780396],"scale":[1,1,1],"children":[8]},{"name":"LFoot","translation":[0.110068030655384,1.90734859017994e-8,0],"rotation":[0.00177402992267162,0.966637909412384,0.00668346183374524,-0.256053388118744],"scale":[1.00000011920929,0.999999940395355,1],"children":[9,10]},{"name":"EndLFoot","translation":[0.118612013757229,-9.53674295089968e-9,-3.81469718035987e-8],"rotation":[2.00487383979657e-18,2.27927766877266e-31,1.13686837721616e-13,1],"scale":[1,1,1]},{"name":"LToe1","translation":[0.0240495670586824,9.53674295089968e-9,-0.144182085990906],"rotation":[2.00487383979657e-18,2.27927766877266e-31,1.13686837721616e-13,1],"scale":[1,1,1],"children":[11,12]},{"name":"EndLToe1","translation":[0.0931588560342789,9.53674295089968e-9,-1.90734859017994e-8],"rotation":[-2.5556794510228e-19,4.2351647362715e-22,1.13686837721616e-13,1],"scale":[1,1,1]},{"name":"LToe2","translation":[0.0378452464938164,-9.53674295089968e-9,-0.0266487095504999],"rotation":[-2.5556794510228e-19,4.2351647362715e-22,1.13686837721616e-13,1],"scale":[1,1,1],"children":[13]},{"name":"EndLToe2","translation":[0.0523747131228447,9.53674295089968e-9,0],"rotation":[1.82079885654331e-18,4.2351647362715e-22,1.13686837721616e-13,1],"scale":[1,1,1]},{"name":"RThigh","translation":[0.0954587161540985,-0.0868799090385437,0.0428749844431877],"rotation":[-0.00000160066906573775,-0.547503054141998,8.67051596742385e-7,0.836803674697876],"scale":[1,1,1],"children":[15]},{"name":"RLeg","translation":[0.0993091389536858,-2.8610228852699e-8,3.81469718035987e-8],"rotation":[-4.46734798676199e-14,0.314980417490005,1.3461001519173e-13,0.949098169803619],"scale":[1,1,1],"children":[16]},{"name":"RFoot","translation":[0.110067002475262,1.90734859017994e-8,-5.72204577053981e-8],"rotation":[0.000905096298083663,0.966654777526855,0.0034047185909003,-0.256058871746063],"scale":[1,0.999999940395355,1],"children":[17,18]},{"name":"EndRFoot","translation":[0.118611969053745,-1.90734859017994e-8,0],"rotation":[1.49034397583992e-19,-8.47162468653505e-33,-5.6843418860808e-14,1],"scale":[1,1,1]},{"name":"RToe1","translation":[0.0240500066429377,9.53674295089968e-9,-0.1441820114851],"rotation":[1.49034397583992e-19,-8.47162468653505e-33,-5.6843418860808e-14,1],"scale":[1,1,1],"children":[19,20]},{"name":"EndRToe1","translation":[0.0931589752435684,1.77635679969558e-17,-8.88178399847791e-18],"rotation":[8.45468283426868e-19,-4.80593077683618e-32,-5.6843418860808e-14,1],"scale":[1,1,1]},{"name":"RToe2","translation":[0.0378449819982052,-1.90734859017994e-8,-0.0266485996544361],"rotation":[8.45468283426868e-19,-4.80593077683618e-32,-5.6843418860808e-14,1],"scale":[1,1,1],"children":[21]},{"name":"EndRToe2","translation":[0.0523750372231007,-1.77635679969558e-17,-4.44089199923895e-18],"rotation":[-6.26502149851871e-19,-8.470329472543e-22,-5.6843418860808e-14,1],"scale":[1,1,1]},{"name":"Tail1","translation":[0.113305032253265,-2.99999172170828e-8,0.0126519771292806],"rotation":[0.999980747699738,1.55183208505605e-8,-0.00000249995173362549,0.0062072635628283],"scale":[1,1,1],"children":[23,24,26,28]},{"name":"EndTail1","translation":[0.219675973057747,-2.98023217215615e-10,1.52587887214395e-7],"rotation":[4.65661287307739e-10,2.27373675443232e-13,-1.4210854715202e-14,1],"scale":[1,1,1]},{"name":"LTail","translation":[0.0219471454620361,-0.109861984848976,-0.00172557821497321],"rotation":[0.498250275850296,-0.257822394371033,-0.268617272377014,0.783019185066223],"scale":[1.00000011920929,0.999999940395355,1],"children":[25]},{"name":"EndLTail","translation":[0.219675958156586,3.81469718035987e-8,1.90734859017994e-8],"rotation":[5.34294936479975e-16,-3.16649710896399e-8,1.49011629702045e-8,1],"scale":[0.99999988079071,1.00000011920929,1]},{"name":"RTail","translation":[0.0219472013413906,0.109862022101879,-0.00172584527172148],"rotation":[-0.48849630355835,-0.261135399341583,0.265396893024445,0.789141416549683],"scale":[0.999999940395355,0.999999940395355,1],"children":[27]},{"name":"EndRTail","translation":[0.219676122069359,-2.28881830821592e-7,5.72204577053981e-8],"rotation":[5.89805664194759e-16,4.097818262494e-8,-1.4901157641134e-8,1],"scale":[1.00000023841858,1,1]},{"name":"Tail2","translation":[0.020868806168437,0,0.0604616515338421],"rotation":[0.0057976059615612,-0.356031805276871,-0.00220890645869076,0.934453248977661],"scale":[1,0.999999940395355,0.999999821186066],"children":[29]},{"name":"EndTail2","translation":[0.241449162364006,9.9092716254745e-9,-3.81469718035987e-8],"rotation":[2.27373675443232e-13,-1.49011611938477e-8,3.28225267061041e-21,1],"scale":[1,1,1]},{"name":"Spine1","translation":[0,0,0],"rotation":[-6.74152199230718e-23,3.46944695195361e-18,1.98523347012727e-23,1],"scale":[1,1,1],"children":[31]},{"name":"Spine2","translation":[0.0952038168907166,4.36557447093186e-13,1.14440915410796e-7],"rotation":[-4.74328828659054e-7,0.102435499429703,4.88451092905962e-8,0.994739651679993],"scale":[1,1,1],"children":[32,39,74]},{"name":"LShoulder","translation":[0.0797508805990219,-0.0443161018192768,0.00671817781403661],"rotation":[0.581848502159119,-0.179408699274063,0.766421139240265,-0.204605609178543],"scale":[1,1,1.00000011920929],"children":[33]},{"name":"LArm","translation":[0.0817063301801682,0,-9.53674295089968e-9],"rotation":[-0.00243285321630538,-0.0763881579041481,-0.272112727165222,0.959225535392761],"scale":[0.999999940395355,1,1],"children":[34]},{"name":"LForeArm","translation":[0.179213970899582,-1.90734859017994e-8,0],"rotation":[-1.15183351815902e-14,-0.0993175804615021,-1.15401381484657e-13,0.995055794715881],"scale":[1,1,1],"children":[35]},{"name":"LHand","translation":[0.124177053570747,-2.8610228852699e-8,-3.81469718035987e-8],"rotation":[-1.03271212026357e-7,-0.574227333068848,1.35534691025896e-7,0.818695902824402],"scale":[1,1,0.999999940395355],"children":[36,37]},{"name":"EndLHand","translation":[0.0726816952228546,-1.90734859017994e-8,-9.53674295089968e-9],"rotation":[1.99455450316103e-19,-1.05879118406788e-22,-6.50482272213093e-14,1],"scale":[1,1,1]},{"name":"LFinger","translation":[0.036656379699707,9.53674295089968e-9,-0.0166751127690077],"rotation":[1.99455450316103e-19,-1.05879118406788e-22,-6.50482272213093e-14,1],"scale":[1,1,1],"children":[38]},{"name":"EndLFinger","translation":[0.0530968084931374,2.8610228852699e-8,-8.88178399847791e-18],"rotation":[-2.48937291161449e-19,-3.17637355220363e-22,-6.50482272213093e-14,1],"scale":[1,1,1]},{"name":"Neck","translation":[0.120604991912842,0,3.81469718035987e-8],"rotation":[2.40640162961145e-13,0.0903282091021538,-1.35979294772944e-13,0.995912075042725],"scale":[1.00000011920929,1,1.00000011920929],"children":[40,58]},{"name":"Feeler","translation":[0.0367248542606831,2.91038298062124e-13,0],"rotation":[-1.71391742141631e-21,-1.4901157641134e-8,-1.13686810616562e-13,1],"scale":[1.00000023841858,1,1.00000023841858],"children":[41,42,44,46,48,50,52,54,56]},{"name":"EndFeeler","translation":[0.238168060779572,-1.00003667569126e-8,1.90734859017994e-8],"rotation":[2.27373675443232e-13,2.98023223876953e-8,-6.96155203524628e-21,1],"scale":[1,1,1]},{"name":"FeelerA","translation":[0.00733840931206942,0,0.0699106007814407],"rotation":[0.534659743309021,-4.22784239617613e-7,0.84506744146347,6.68240318191238e-7],"scale":[0.999999940395355,1,0.999999940395355],"children":[43]},{"name":"EndFeelerA","translation":[0.248156040906906,-2.91038298062124e-13,-1.90734859017994e-8],"rotation":[1.07587549980082e-13,4.54747350886464e-13,4.82813639570563e-23,1],"scale":[1,1,1]},{"name":"FeelerB","translation":[-0.0104721067473292,-2.91038298062124e-13,-0.0457861497998238],"rotation":[-9.64081209531287e-7,0.909657001495361,-3.32263113023146e-7,0.415360301733017],"scale":[1,1,1],"children":[45]},{"name":"EndFeelerB","translation":[0.313366025686264,-2.00000069838779e-8,3.81469718035987e-8],"rotation":[-2.11758236813575e-22,-8.42594465463786e-35,3.97903986235765e-13,1],"scale":[0.99999988079071,1,0.99999988079071]},{"name":"LFeelerA","translation":[-0.0121141048148274,-0.0434948913753033,-0.0337452106177807],"rotation":[-0.19683438539505,0.765413999557495,-0.491639316082001,0.36563429236412],"scale":[0.99999988079071,1,1.00000011920929],"children":[47]},{"name":"EndLFeelerA","translation":[0.310706943273544,-7.10542719878232e-17,-7.10542719878232e-17],"rotation":[1.49011629702045e-8,5.12227522619924e-8,9.3132266343332e-9,1],"scale":[0.999999821186066,0.999999821186066,0.999999761581421]},{"name":"LFeelerB","translation":[-0.0283520501106977,-0.0776272714138031,0.0202593989670277],"rotation":[-0.320551633834839,0.702005922794342,-0.556208550930023,0.308328300714493],"scale":[0.999999940395355,0.99999988079071,1.00000011920929],"children":[49]},{"name":"EndLFeelerB","translation":[0.16988605260849,-5.72204577053981e-8,-7.10542719878232e-17],"rotation":[1.49011585293124e-8,8.56816484429146e-8,7.45057660012094e-9,1],"scale":[1.00000035762787,1.00000011920929,1]},{"name":"LFeelerC","translation":[-0.00449272152036428,-0.0489765778183937,0.0627404749393463],"rotation":[0.547219932079315,-0.278332024812698,0.758424639701843,-0.21880054473877],"scale":[0.99999988079071,0.999999940395355,1],"children":[51]},{"name":"EndLFeelerC","translation":[0.200000017881393,-1.90734859017994e-8,-5.72204577053981e-8],"rotation":[-8.32667268468867e-17,7.45058059692383e-9,1.49011611938477e-8,1],"scale":[1,1,1]},{"name":"RFeelerA","translation":[-0.012114486657083,0.0434948988258839,-0.033745288848877],"rotation":[0.196834310889244,0.76541393995285,0.491639405488968,0.36563429236412],"scale":[1,1,1],"children":[53]},{"name":"EndRFeelerA","translation":[0.310707092285156,-1.52587887214395e-7,6.86645478253922e-7],"rotation":[2.60208471765684e-17,2.14204174397992e-8,-1.86264492718635e-9,1],"scale":[1.00000011920929,1.00000023841858,1.00000011920929]},{"name":"RFeelerB","translation":[-0.0283516682684422,0.0776273086667061,0.0202592089772224],"rotation":[0.320551693439484,0.702005982398987,0.556208491325378,0.30832827091217],"scale":[1,0.999999940395355,1.00000011920929],"children":[55]},{"name":"EndRFeelerB","translation":[0.169886961579323,4.00543200385073e-7,-6.10351548857579e-7],"rotation":[-8.94069529522312e-8,-1.11758744480994e-8,1.49011629702045e-8,1],"scale":[0.999999761581421,1.00000011920929,0.999999701976776]},{"name":"RFeelerC","translation":[-0.00449256878346205,0.0489766113460064,0.0627405717968941],"rotation":[0.547219932079315,0.278331816196442,0.758424639701843,0.218800738453865],"scale":[1,0.999999940395355,1.00000011920929],"children":[57]},{"name":"EndRFeelerC","translation":[0.199999958276749,-3.2424927098873e-7,9.53674259562831e-8],"rotation":[-1.49011611938477e-8,-1.96023752785379e-16,1.49011611938477e-8,1],"scale":[1,1,1]},{"name":"Head","translation":[0.0663353726267815,1.45519149031062e-13,5.72204577053981e-8],"rotation":[-7.06074298150155e-15,-0.120600648224354,-5.81191521233267e-14,0.99270111322403],"scale":[1.00000011920929,1,1.00000011920929],"children":[59,60,62,64,67,69,72]},{"name":"EndHead","translation":[0.214774012565613,2.91038298062124e-13,0],"rotation":[1.42275065359121e-22,1.38777878078145e-17,5.29395592033938e-23,1],"scale":[1,1,1]},{"name":"Hair","translation":[0.0903816223144531,-2.71050537062924e-22,-0.0926430895924568],"rotation":[-8.15429018530267e-7,0.919430553913116,-8.15429643807875e-7,0.393252342939377],"scale":[1,1,1],"children":[61]},{"name":"EndHair","translation":[0.105354100465775,-1.35525268531462e-22,1.14440915410796e-7],"rotation":[5.82335151237331e-22,1.49011611938477e-8,-5.6843418860808e-14,1],"scale":[1,1,1]},{"name":"Jaw","translation":[0.0903179123997688,2.91038298062124e-13,0.0192949678748846],"rotation":[-4.51440854476459e-7,-0.322000712156296,-1.53542003999974e-7,0.946739435195923],"scale":[1,1,1],"children":[63]},{"name":"EndJaw","translation":[0.110025994479656,0,7.10542719878232e-17],"rotation":[-1.65436122510606e-22,-5.55111578487027e-17,5.68434256370716e-14,1],"scale":[0.99999988079071,1,0.99999988079071]},{"name":"LEar1","translation":[0.084126353263855,-0.0723830908536911,-0.0682216212153435],"rotation":[0.120822973549366,0.644278585910797,-0.581573784351349,0.481745600700378],"scale":[1.00000011920929,1,1.00000011920929],"children":[65]},{"name":"LEar2","translation":[0.148693040013313,-1.52587887214395e-7,0],"rotation":[1.30385169327951e-8,9.31322352570874e-10,-1.49011611938477e-8,1],"scale":[1,0.999999940395355,0.99999988079071],"children":[66]},{"name":"EndLEar2","translation":[0.213755071163177,-3.81469718035987e-8,-7.10542719878232e-17],"rotation":[-7.45058059692383e-9,-2.23517417907715e-8,-1.49011611938477e-8,1],"scale":[1,1,1]},{"name":"LHair","translation":[0.0333324410021305,-0.0893198847770691,-0.0211999118328094],"rotation":[0.115914896130562,-0.660408198833466,0.697541117668152,-0.252707481384277],"scale":[1.00000023841858,1.00000035762787,1.00000011920929],"children":[68]},{"name":"EndLHair","translation":[0.105629049241543,-7.10542719878232e-17,0],"rotation":[1.13686837721616e-13,-7.16271486567166e-12,-2.27373675443232e-13,1],"scale":[1,1,1]},{"name":"REar1","translation":[0.084126815199852,0.0723831057548523,-0.068221852183342],"rotation":[-0.120822571218014,0.644278705120087,0.58157342672348,0.481745988130569],"scale":[0.99999988079071,0.99999988079071,1],"children":[70]},{"name":"REar2","translation":[0.148693010210991,5.34057619461237e-7,-3.0517577442879e-7],"rotation":[-1.67638081194355e-8,2.51457112909748e-8,1.49011629702045e-8,1],"scale":[0.999999940395355,0.999999940395355,0.999999940395355],"children":[71]},{"name":"EndREar2","translation":[0.213754072785378,2.28881830821592e-7,-3.81469718035987e-8],"rotation":[9.31322574615479e-9,-8.38190317153931e-9,2.16840434497101e-16,1],"scale":[1,1,1]},{"name":"RHair","translation":[0.0333319865167141,0.0893199071288109,-0.0212000273168087],"rotation":[0.115914821624756,0.660408139228821,0.697541236877441,0.252707481384277],"scale":[0.999999940395355,1.00000047683716,0.999999940395355],"children":[73]},{"name":"EndRHair","translation":[0.10562901198864,7.62939436071974e-8,-1.33514404865309e-7],"rotation":[3.17637355220363e-22,-1.55891966002741e-12,2.11758236813575e-22,1],"scale":[1,1,1]},{"name":"RShoulder","translation":[0.0797512233257294,0.0443161018192768,0.00671783415600657],"rotation":[0.581848502159119,0.179408609867096,0.766421139240265,0.204605668783188],"scale":[1,1,1.00000023841858],"children":[75]},{"name":"RArm","translation":[0.0817063897848129,3.81469718035987e-8,-6.38961751064926e-7],"rotation":[0.0024328394792974,-0.0763880833983421,0.272112607955933,0.959225535392761],"scale":[0.999999940395355,1,0.999999582767487],"children":[76]},{"name":"RForeArm","translation":[0.179215013980865,9.53674295089968e-9,2.47955313170678e-7],"rotation":[-1.09587706476674e-13,-0.0993175953626633,-2.39441496144299e-13,0.995055794715881],"scale":[1,1,1],"children":[77]},{"name":"RHand","translation":[0.124177023768425,9.53674295089968e-9,1.14440915410796e-7],"rotation":[-5.1635464615174e-7,-0.574227273464203,6.77675586757687e-7,0.818695962429047],"scale":[1.00000011920929,0.99999988079071,1.00000011920929],"children":[78,79]},{"name":"EndRHand","translation":[0.0726820155978203,-1.77635679969558e-17,-9.53674295089968e-9],"rotation":[7.05081706141329e-22,9.02969735797295e-37,1.280659712019e-15,1],"scale":[1,1,1]},{"name":"RFinger","translation":[0.0366570092737675,1.90734859017994e-8,-0.0166751071810722],"rotation":[7.05081706141329e-22,9.02969735797295e-37,1.280659712019e-15,1],"scale":[1,1,1],"children":[80]},{"name":"EndRFinger","translation":[0.0530960075557232,1.90734859017994e-8,0],"rotation":[-2.33303100985992e-22,2.11758236813575e-22,1.28065950026076e-15,1],"scale":[1,1,1]},{"name":"pm0135_00_Skin","translation":[0,0,0],"rotation":[-2.64697796016969e-23,0,0,1],"scale":[1,1,1]},{"name":"Jolteon","translation":[0,0,0],"rotation":[-0.70710676908493,0,0,0.70710676908493],"scale":[2.53999996185303,2.53999996185303,2.53999996185303],"mesh":0,"skin":0}]}