{"asset":{"generator":"FBX2glTF v0.9.7","version":"2.0"},"scene":0,"buffers":[{"byteLength":244600,"uri":"data:application/octet-stream;base64,"}],"bufferViews":[{"buffer":0,"byteLength":32688,"byteOffset":0,"target":34963},{"buffer":0,"byteLength":43908,"byteOffset":32688,"target":34962},{"buffer":0,"byteLength":43908,"byteOffset":76596,"target":34962},{"buffer":0,"byteLength":29272,"byteOffset":120504,"target":34962},{"buffer":0,"byteLength":29272,"byteOffset":149776,"target":34962},{"buffer":0,"byteLength":58544,"byteOffset":179048,"target":34962},{"buffer":0,"byteLength":360,"byteOffset":237592,"target":34963},{"buffer":0,"byteLength":576,"byteOffset":237952,"target":34962},{"buffer":0,"byteLength":576,"byteOffset":238528,"target":34962},{"buffer":0,"byteLength":384,"byteOffset":239104,"target":34962},{"buffer":0,"byteLength":384,"byteOffset":239488,"target":34962},{"buffer":0,"byteLength":768,"byteOffset":239872,"target":34962},{"buffer":0,"byteLength":192,"byteOffset":240640,"target":34963},{"buffer":0,"byteLength":300,"byteOffset":240832,"target":34962},{"buffer":0,"byteLength":300,"byteOffset":241132,"target":34962},{"buffer":0,"byteLength":200,"byteOffset":241432,"target":34962},{"buffer":0,"byteLength":200,"byteOffset":241632,"target":34962},{"buffer":0,"byteLength":400,"byteOffset":241832,"target":34962},{"buffer":0,"byteLength":2368,"byteOffset":242232}],"scenes":[{"name":"Root Scene","nodes":[0]}],"accessors":[{"componentType":5123,"type":"SCALAR","count":16344,"bufferView":0,"byteOffset":0},{"componentType":5126,"type":"VEC3","count":3659,"bufferView":1,"byteOffset":0,"min":[-0.345401972532272,-0.570473909378052,0],"max":[0.345402032136917,1.24785006046295,0.88031005859375]},{"componentType":5126,"type":"VEC3","count":3659,"bufferView":2,"byteOffset":0},{"componentType":5126,"type":"VEC2","count":3659,"bufferView":3,"byteOffset":0},{"componentType":5123,"type":"VEC4","count":3659,"bufferView":4,"byteOffset":0},{"componentType":5126,"type":"VEC4","count":3659,"bufferView":5,"byteOffset":0},{"componentType":5123,"type":"SCALAR","count":180,"bufferView":6,"byteOffset":0},{"componentType":5126,"type":"VEC3","count":48,"bufferView":7,"byteOffset":0,"min":[-0.117478005588055,-0.551730930805206,0.430672943592072],"max":[0.117477983236313,-0.456817924976349,0.51557594537735]},{"componentType":5126,"type":"VEC3","count":48,"bufferView":8,"byteOffset":0},{"componentType":5126,"type":"VEC2","count":48,"bufferView":9,"byteOffset":0},{"componentType":5123,"type":"VEC4","count":48,"bufferView":10,"byteOffset":0},{"componentType":5126,"type":"VEC4","count":48,"bufferView":11,"byteOffset":0},{"componentType":5123,"type":"SCALAR","count":96,"bufferView":12,"byteOffset":0},{"componentType":5126,"type":"VEC3","count":25,"bufferView":13,"byteOffset":0,"min":[-0.0433299094438553,-0.563876926898956,0.353915959596634],"max":[0.0433298908174038,-0.501457989215851,0.405558943748474]},{"componentType":5126,"type":"VEC3","count":25,"bufferView":14,"byteOffset":0},{"componentType":5126,"type":"VEC2","count":25,"bufferView":15,"byteOffset":0},{"componentType":5123,"type":"VEC4","count":25,"bufferView":16,"byteOffset":0},{"componentType":5126,"type":"VEC4","count":25,"bufferView":17,"byteOffset":0},{"componentType":5126,"type":"MAT4","count":37,"bufferView":18,"byteOffset":0}],"images":[{"name":"pm0134_00_Body1.png","uri":"data:application/octet-stream;base64,"},{"name":"pm0134_00_Eye1.png","uri":"data:application/octet-stream;base64,"},{"name":"pm0134_00_Mouth1.png","uri":"data:application/octet-stream;base64,"}],"samplers":[{}],"textures":[{"name":"Map #0","sampler":0,"source":0},{"name":"Map #1","sampler":0,"source":1},{"name":"Map #2","sampler":0,"source":2}],"materials":[{"name":"Material #10","alphaMode":"OPAQUE","extras":{"fromFBX":{"shadingModel":"Phong","isTruePBR":false}},"pbrMetallicRoughness":{"baseColorTexture":{"index":0,"texCoord":0},"baseColorFactor":[1,1,1,1],"metallicFactor":0.400000005960464,"roughnessFactor":0.70710676908493}},{"name":"Material #11","alphaMode":"OPAQUE","extras":{"fromFBX":{"shadingModel":"Phong","isTruePBR":false}},"pbrMetallicRoughness":{"baseColorTexture":{"index":1,"texCoord":0},"baseColorFactor":[1,1,1,1],"metallicFactor":0.400000005960464,"roughnessFactor":0.70710676908493}},{"name":"Material #12","alphaMode":"OPAQUE","extras":{"fromFBX":{"shadingModel":"Phong","isTruePBR":false}},"pbrMetallicRoughness":{"baseColorTexture":{"index":2,"texCoord":0},"baseColorFactor":[1,1,1,1],"metallicFactor":0.400000005960464,"roughnessFactor":0.70710676908493}}],"meshes":[{"name":"Vaporeon","primitives":[{"material":0,"mode":4,"attributes":{"JOINTS_0":4,"NORMAL":2,"POSITION":1,"TEXCOORD_0":3,"WEIGHTS_0":5},"indices":0},{"material":1,"mode":4,"attributes":{"JOINTS_0":10,"NORMAL":8,"POSITION":7,"TEXCOORD_0":9,"WEIGHTS_0":11},"indices":6},{"material":2,"mode":4,"attributes":{"JOINTS_0":16,"NORMAL":14,"POSITION":13,"TEXCOORD_0":15,"WEIGHTS_0":17},"indices":12}]}],"skins":[{"joints":[19,20,21,18,4,12,6,31,32,13,22,23,24,25,29,27,7,14,16,51,33,50,38,39,40,34,52,35,36,8,10,47,42,44,53,45,48],"inverseBindMatrices":18,"skeleton":4}],"nodes":[{"name":"RootNode","translation":[0,0,0],"rotation":[0,0,0,1],"scale":[1,1,1],"children":[1,56]},{"name":"pm0134_00","translation":[0,0,0],"rotation":[-1.56958236630089e-7,0,0,1],"scale":[2.53999996185303,2.53999996185303,2.53999996185303],"children":[2,55]},{"name":"Origin","translation":[0,0,0],"rotation":[-2.64697796016969e-23,0,0,1],"scale":[1,1,1],"children":[3]},{"name":"Waist","translation":[0,0.370335012674332,0.0407356955111027],"rotation":[0.499999910593033,-0.500000059604645,0.499999910593033,0.500000059604645],"scale":[1,0.999999940395355,0.999999940395355],"children":[4,31]},{"name":"Hips","translation":[0,0,0],"rotation":[-0.00000150601590576116,1,0.00000353256996277196,0.00000186363183729554],"scale":[1,0.999999761581421,0.999999761581421],"children":[5,6,12,18]},{"name":"EndHips","translation":[1.00760972499847,3.00008089482162e-8,1.52587887214395e-7],"rotation":[1.03445249011353e-22,-2.11758236813575e-22,9.71289021434174e-14,1],"scale":[1,0.99999988079071,0.99999988079071]},{"name":"LThigh","translation":[0.0843734741210938,-0.0799970701336861,-0.0230336375534534],"rotation":[0.773887038230896,-0.00000118028731321829,-0.633323609828949,-0.00000144224657105951],"scale":[0.999999940395355,0.99999988079071,1],"children":[7]},{"name":"LLeg","translation":[0.11523599177599,-9.53674295089968e-9,-8.58306847817403e-8],"rotation":[-4.79095224863862e-13,0.29789811372757,-1.51780606312546e-12,0.954597651958466],"scale":[1,1,1],"children":[8]},{"name":"LFoot","translation":[0.111851967871189,0,5.72204577053981e-8],"rotation":[0.000555040081962943,0.927415370941162,0.00136751052923501,-0.374030083417892],"scale":[0.999999761581421,1.00000011920929,0.999999821186066],"children":[9,10]},{"name":"EndLFoot","translation":[0.10266400873661,-9.53674295089968e-9,-9.53674295089968e-9],"rotation":[1.16415321826935e-10,-4.23878365145142e-22,-3.10862446895044e-15,1],"scale":[1,1,1]},{"name":"LToe","translation":[0.0608102194964886,0,-0.120805032551289],"rotation":[1.16415321826935e-10,-4.23878365145142e-22,-3.10862446895044e-15,1],"scale":[1,1,1],"children":[11]},{"name":"EndLToe","translation":[0.0815708935260773,-9.53674295089968e-9,4.76837147544984e-9],"rotation":[1.16415321826935e-10,-4.23878365145142e-22,-3.10862446895044e-15,1],"scale":[1,1,1]},{"name":"RThigh","translation":[0.084373377263546,0.0799971073865891,-0.023034019395709],"rotation":[0.773887038230896,5.85754605708644e-7,-0.633323609828949,5.59597822302749e-7],"scale":[1,0.99999988079071,1.00000011920929],"children":[13]},{"name":"RLeg","translation":[0.115236066281796,-8.88178399847791e-18,-2.09808348472507e-7],"rotation":[6.59716828691967e-14,0.297898083925247,-2.05875626876212e-14,0.954597651958466],"scale":[1,1,1],"children":[14]},{"name":"RFoot","translation":[0.111852020025253,9.53674295089968e-9,3.81469703825132e-7],"rotation":[0.00000252872860073694,0.927416205406189,0.00000305647790810326,-0.374030917882919],"scale":[0.999999821186066,1,1],"children":[15,16]},{"name":"EndRFoot","translation":[0.102663971483707,-9.53674295089968e-9,-1.77635679969558e-17],"rotation":[-8.46413078782768e-20,-4.54747405096573e-13,7.24941025314002e-15,1],"scale":[0.99999988079071,1,0.99999988079071]},{"name":"RToe","translation":[0.0608101077377796,9.53674295089968e-9,-0.120805032551289],"rotation":[-8.46413078782768e-20,-4.54747405096573e-13,7.24941025314002e-15,1],"scale":[0.99999988079071,1,0.99999988079071],"children":[17]},{"name":"EndRToe","translation":[0.0815708711743355,-9.53674295089968e-9,-4.44089199923895e-18],"rotation":[5.51388385817162e-20,6.66828410925919e-33,1.20936247127723e-13,1],"scale":[1,1,1]},{"name":"Tail1","translation":[0.13952399790287,2.91038298062124e-13,0.0268766023218632],"rotation":[1.03445249011353e-22,-2.11758236813575e-22,9.71289021434174e-14,1],"scale":[1,0.99999988079071,0.99999988079071],"children":[19]},{"name":"Tail2","translation":[0.112702012062073,1.00000763225694e-8,-7.62939436071974e-8],"rotation":[-2.27373675443232e-13,2.27373675443232e-13,-1.65579355781986e-14,1],"scale":[1,1,1],"children":[20]},{"name":"Tail3","translation":[0.109575003385544,1.00000763225694e-8,3.81469718035987e-8],"rotation":[-2.27373675443232e-13,2.27373675443232e-13,-1.65570682164606e-14,1],"scale":[1,1,1],"children":[21]},{"name":"Tail4","translation":[0.109383009374142,1.00006580794343e-8,0],"rotation":[0.00000199341184270452,-0.00685901055112481,-9.39933670451865e-7,0.999976456165314],"scale":[1,1,1],"children":[22]},{"name":"Tail5","translation":[0.11429999768734,1.00000763225694e-8,7.62939436071974e-8],"rotation":[-9.5358348062291e-7,-0.0137970838695765,-1.31579129813986e-8,0.999904811382294],"scale":[1,1,1],"children":[23]},{"name":"Tail6","translation":[0.105794064700603,2.91038298062124e-13,7.62939436071974e-8],"rotation":[8.07328277851755e-22,3.469446124773e-18,3.97903850710493e-13,1],"scale":[1.00000023841858,1,1.00000023841858],"children":[24]},{"name":"Tail7","translation":[0.106483988463879,-1.99994243388346e-8,7.62939436071974e-8],"rotation":[9.99951453195536e-7,0.0098893390968442,-9.88876713847731e-9,0.999951124191284],"scale":[1,1,1],"children":[25]},{"name":"Tail8","translation":[0.11334777623415,-2.91038298062124e-13,7.10542719878232e-17],"rotation":[0.00000599942723056301,0.0138155613094568,-8.28928818918939e-8,0.999904572963715],"scale":[0.99999988079071,1,0.99999988079071],"children":[26,27,29]},{"name":"EndTail8","translation":[0.048415295779705,-1.99998613226171e-8,0],"rotation":[4.23102933807972e-22,2.32830588142718e-10,4.28101889875243e-13,1],"scale":[1.00000023841858,1,1.00000023841858]},{"name":"LTail","translation":[0.10518005490303,-0.0277552884072065,3.81469718035987e-8],"rotation":[-0.000007731122423138,-0.00000211253473025863,-0.260438740253448,0.965490400791168],"scale":[1,1.00000011920929,1.00000023841858],"children":[28]},{"name":"EndLTail","translation":[0.342460930347443,1.14440915410796e-7,-3.81469718035987e-8],"rotation":[-3.49245882214078e-10,-2.3283064365387e-10,6.36100594419986e-9,1],"scale":[1,1.00000023841858,1.00000023841858]},{"name":"RTail","translation":[0.10518005490303,0.0277554094791412,-3.43322739126961e-7],"rotation":[-0.00000633633499091957,0.00000243451449932763,0.260439068078995,0.965490281581879],"scale":[0.999999940395355,1,1.00000023841858],"children":[30]},{"name":"EndRTail","translation":[0.342459857463837,0.00000122070309771516,-1.52587887214395e-7],"rotation":[-9.53208711962361e-7,4.65627120194156e-10,3.5784974983244e-8,1],"scale":[1.00000011920929,0.999999940395355,0.99999988079071]},{"name":"Spine1","translation":[0,0,0],"rotation":[4.26325743100014e-14,-2.8421709430404e-14,1.05592889033251e-14,1],"scale":[1,0.999999761581421,0.999999761581421],"children":[32]},{"name":"Spine2","translation":[0.0963772013783455,9.09494681444138e-15,-7.62939436071974e-8],"rotation":[0.00000186410113656166,0.0384065471589565,0.00000342060502589447,0.99926221370697],"scale":[1,0.99999988079071,1],"children":[33,38,50]},{"name":"LShoulder","translation":[0.110904023051262,-0.0516347698867321,-0.0116300964727998],"rotation":[0.673675000667572,-0.138946712017059,0.709343671798706,-0.153906941413879],"scale":[0.999999940395355,1,1],"children":[34]},{"name":"LArm","translation":[0.0630818754434586,-1.90734859017994e-8,0],"rotation":[0.000377156218746677,0.0264928713440895,-0.207349479198456,0.977908074855804],"scale":[0.999999821186066,0.999999940395355,0.999999821186066],"children":[35]},{"name":"LForeArm","translation":[0.168924063444138,0,1.90734859017994e-8],"rotation":[-1.4087635138299e-13,-0.239632204174995,1.4087635138299e-13,0.97086375951767],"scale":[1,1,1],"children":[36]},{"name":"LHand","translation":[0.14151406288147,0,-1.90734859017994e-8],"rotation":[0.00361333345063031,-0.529367566108704,0.00225591845810413,0.848381876945496],"scale":[1.00000035762787,0.999999940395355,1.00000023841858],"children":[37]},{"name":"EndLHand","translation":[0.074281670153141,0,9.53674295089968e-9],"rotation":[9.31322574615479e-10,-2.27373675443232e-13,5.32907051820075e-15,1],"scale":[1,1,1]},{"name":"Neck","translation":[0.143442004919052,2.91038298062124e-13,7.10542719878232e-17],"rotation":[-1.69111903300379e-13,0.285978138446808,1.69111903300379e-13,0.958236157894135],"scale":[1,1,1],"children":[39]},{"name":"Head","translation":[0.0408294685184956,2.91038298062124e-13,-7.62939436071974e-8],"rotation":[-1.06930184650376e-13,0.0653233677148819,-1.06930157545322e-13,0.997864127159119],"scale":[1.00000023841858,1,1.00000011920929],"children":[40,42,44,47]},{"name":"FeelerA","translation":[-0.00195388798601925,-2.91038298062124e-13,0.0135383605957031],"rotation":[3.20259037388596e-13,-0.0672133937478065,-3.2025906449365e-13,0.997738599777222],"scale":[0.999999940395355,1,1.00000011920929],"children":[41]},{"name":"EndFeelerA","translation":[0.290361136198044,9.99963933878689e-9,-9.53674259562831e-8],"rotation":[-2.27373675443232e-13,-2.98023223876953e-8,1.13686830945352e-13,1],"scale":[1,1,1]},{"name":"FeelerB","translation":[0.261503964662552,1.00005124181735e-8,-5.72204577053981e-8],"rotation":[4.30738290087967e-13,0.524706244468689,-2.6549452198342e-13,0.851283371448517],"scale":[0.999999701976776,1,0.999999821186066],"children":[43]},{"name":"EndFeelerB","translation":[0.306573033332825,-4.00008843826072e-8,0],"rotation":[1.13686837721616e-13,-2.7755568998184e-17,-1.13686810616562e-13,1],"scale":[1.00000023841858,1,1.00000023841858]},{"name":"LEar1","translation":[0.174193799495697,-0.0989891886711121,-0.0102348132058978],"rotation":[0.0327394902706146,0.353182077407837,-0.515556991100311,0.779994547367096],"scale":[1.00000011920929,0.99999988079071,0.99999988079071],"children":[45]},{"name":"LEar2","translation":[0.121536038815975,7.62939436071974e-8,-1.52587887214395e-7],"rotation":[7.4505792646562e-9,-1.86264479395959e-8,-1.4901157641134e-8,1],"scale":[1.00000023841858,1.00000011920929,1.00000011920929],"children":[46]},{"name":"EndLEar2","translation":[0.197568088769913,1.42108543975646e-16,7.62939436071974e-8],"rotation":[-2.23517435671283e-8,-1.49011611938477e-8,1.49011611938477e-8,1],"scale":[1,0.999999940395355,0.999999821186066]},{"name":"REar1","translation":[0.174194023013115,0.0989892110228539,-0.0102343559265137],"rotation":[-0.0327394306659698,0.353182196617126,0.515556752681732,0.779994666576385],"scale":[0.999999821186066,0.999999761581421,0.99999988079071],"children":[48]},{"name":"REar2","translation":[0.121536038815975,7.62939436071974e-8,-4.95910626341356e-7],"rotation":[2.23517453434852e-8,-4.4703483581543e-8,2.98023223876953e-8,1],"scale":[1,0.99999988079071,1],"children":[49]},{"name":"EndREar2","translation":[0.197568997740746,7.10542719878232e-17,-7.62939436071974e-8],"rotation":[-1.04308128356934e-7,2.23517382380578e-8,2.9802325940409e-8,1],"scale":[1,1,1]},{"name":"RShoulder","translation":[0.110904045403004,0.0516348071396351,-0.0116304010152817],"rotation":[0.673674762248993,0.138947859406471,0.709343612194061,0.153907388448715],"scale":[0.999999940395355,1,1],"children":[51]},{"name":"RArm","translation":[0.0630825385451317,2.86102277868849e-7,3.81469703825132e-7],"rotation":[-0.000377138610929251,0.0264928843826056,0.207349374890327,0.977908074855804],"scale":[0.99999988079071,1.00000011920929,1.00000011920929],"children":[52]},{"name":"RForeArm","translation":[0.168924018740654,-4.76837147544984e-9,-1.14440915410796e-7],"rotation":[7.37273957163165e-13,-0.239632174372673,-5.22206281309504e-14,0.97086375951767],"scale":[1,1,1],"children":[53]},{"name":"RHand","translation":[0.141514018177986,9.53674295089968e-9,-2.09808348472507e-7],"rotation":[0.0035300743766129,-0.529366374015808,0.002211730228737,0.848383128643036],"scale":[1.00000023841858,0.999999940395355,1.00000011920929],"children":[54]},{"name":"EndRHand","translation":[0.0742819607257843,8.88178399847791e-18,4.44089199923895e-18],"rotation":[-7.56352755615292e-19,8.470329472543e-22,-7.46069872548105e-14,1],"scale":[1,1.00000023841858,1.00000023841858]},{"name":"pm0134_00_BodySkin","translation":[0,0,0],"rotation":[-2.64697796016969e-23,0,0,1],"scale":[1,1,1]},{"name":"Vaporeon","translation":[0,0,0],"rotation":[-0.70710676908493,0,0,0.70710676908493],"scale":[2.53999996185303,2.53999996185303,2.53999996185303],"mesh":0,"skin":0}]}